<svg width="393" height="210" viewBox="0 0 393 210" fill="none" xmlns="http://www.w3.org/2000/svg">
<rect width="393" height="210" fill="url(#paint0_linear_4_233)"/>
<path d="M30.5938 59.7386V58.3948L35.4453 58.387V62.637C34.7005 63.2308 33.9323 63.6787 33.1406 63.9808C32.349 64.2776 31.5365 64.4261 30.7031 64.4261C29.5781 64.4261 28.5547 64.1865 27.6328 63.7073C26.7161 63.223 26.0234 62.525 25.5547 61.6136C25.0859 60.7021 24.8516 59.6839 24.8516 58.5589C24.8516 57.4443 25.0833 56.4052 25.5469 55.4417C26.0156 54.473 26.6875 53.7542 27.5625 53.2855C28.4375 52.8167 29.4453 52.5823 30.5859 52.5823C31.4141 52.5823 32.1615 52.7177 32.8281 52.9886C33.5 53.2542 34.026 53.6266 34.4062 54.1058C34.7865 54.5849 35.0755 55.2099 35.2734 55.9808L33.9062 56.3558C33.7344 55.7724 33.5208 55.3141 33.2656 54.9808C33.0104 54.6474 32.6458 54.3818 32.1719 54.1839C31.6979 53.9808 31.1719 53.8792 30.5938 53.8792C29.901 53.8792 29.3021 53.986 28.7969 54.1995C28.2917 54.4078 27.8828 54.6839 27.5703 55.0276C27.263 55.3714 27.0234 55.749 26.8516 56.1605C26.5599 56.8688 26.4141 57.637 26.4141 58.4651C26.4141 59.486 26.5885 60.3401 26.9375 61.0276C27.2917 61.7151 27.8047 62.2256 28.4766 62.5589C29.1484 62.8922 29.862 63.0589 30.6172 63.0589C31.2734 63.0589 31.9141 62.9339 32.5391 62.6839C33.1641 62.4287 33.638 62.1578 33.9609 61.8714V59.7386H30.5938ZM37.4766 64.2308V52.7776H38.8828V64.2308H37.4766ZM40.5469 60.0823C40.5469 58.5459 40.974 57.4078 41.8281 56.6683C42.5417 56.0537 43.4115 55.7464 44.4375 55.7464C45.5781 55.7464 46.5104 56.1214 47.2344 56.8714C47.9583 57.6162 48.3203 58.6474 48.3203 59.9651C48.3203 61.0328 48.1589 61.874 47.8359 62.4886C47.5182 63.098 47.0521 63.5719 46.4375 63.9105C45.8281 64.249 45.1615 64.4183 44.4375 64.4183C43.276 64.4183 42.3359 64.0459 41.6172 63.3011C40.9036 62.5563 40.5469 61.4834 40.5469 60.0823ZM41.9922 60.0823C41.9922 61.1448 42.224 61.9417 42.6875 62.473C43.151 62.999 43.7344 63.262 44.4375 63.262C45.1354 63.262 45.7161 62.9964 46.1797 62.4651C46.6432 61.9339 46.875 61.124 46.875 60.0355C46.875 59.0094 46.6406 58.2334 46.1719 57.7073C45.7083 57.1761 45.1302 56.9105 44.4375 56.9105C43.7344 56.9105 43.151 57.1735 42.6875 57.6995C42.224 58.2256 41.9922 59.0198 41.9922 60.0823ZM49.4141 61.7542L50.8047 61.5355C50.8828 62.0927 51.099 62.5198 51.4531 62.8167C51.8125 63.1136 52.3125 63.262 52.9531 63.262C53.599 63.262 54.0781 63.1318 54.3906 62.8714C54.7031 62.6058 54.8594 62.2959 54.8594 61.9417C54.8594 61.624 54.7214 61.374 54.4453 61.1917C54.2526 61.0667 53.7734 60.9078 53.0078 60.7151C51.9766 60.4547 51.2604 60.2308 50.8594 60.0433C50.4635 59.8506 50.1615 59.5875 49.9531 59.2542C49.75 58.9157 49.6484 58.5433 49.6484 58.137C49.6484 57.7672 49.7318 57.4261 49.8984 57.1136C50.0703 56.7959 50.3021 56.5328 50.5938 56.3245C50.8125 56.1631 51.1094 56.0276 51.4844 55.9183C51.8646 55.8037 52.2708 55.7464 52.7031 55.7464C53.3542 55.7464 53.9245 55.8401 54.4141 56.0276C54.9089 56.2151 55.2734 56.4703 55.5078 56.7933C55.7422 57.111 55.9036 57.5381 55.9922 58.0745L54.6172 58.262C54.5547 57.8349 54.3724 57.5016 54.0703 57.262C53.7734 57.0224 53.3516 56.9026 52.8047 56.9026C52.1589 56.9026 51.6979 57.0094 51.4219 57.223C51.1458 57.4365 51.0078 57.6865 51.0078 57.973C51.0078 58.1552 51.0651 58.3193 51.1797 58.4651C51.2943 58.6162 51.474 58.7412 51.7188 58.8401C51.8594 58.8922 52.2734 59.012 52.9609 59.1995C53.9557 59.4651 54.6484 59.6839 55.0391 59.8558C55.4349 60.0224 55.7448 60.2672 55.9688 60.5901C56.1927 60.9131 56.3047 61.3141 56.3047 61.7933C56.3047 62.262 56.1667 62.7047 55.8906 63.1214C55.6198 63.5328 55.2266 63.8532 54.7109 64.0823C54.1953 64.3063 53.612 64.4183 52.9609 64.4183C51.8828 64.4183 51.0599 64.1943 50.4922 63.7464C49.9297 63.2985 49.5703 62.6344 49.4141 61.7542ZM57.4141 61.7542L58.8047 61.5355C58.8828 62.0927 59.099 62.5198 59.4531 62.8167C59.8125 63.1136 60.3125 63.262 60.9531 63.262C61.599 63.262 62.0781 63.1318 62.3906 62.8714C62.7031 62.6058 62.8594 62.2959 62.8594 61.9417C62.8594 61.624 62.7214 61.374 62.4453 61.1917C62.2526 61.0667 61.7734 60.9078 61.0078 60.7151C59.9766 60.4547 59.2604 60.2308 58.8594 60.0433C58.4635 59.8506 58.1615 59.5875 57.9531 59.2542C57.75 58.9157 57.6484 58.5433 57.6484 58.137C57.6484 57.7672 57.7318 57.4261 57.8984 57.1136C58.0703 56.7959 58.3021 56.5328 58.5938 56.3245C58.8125 56.1631 59.1094 56.0276 59.4844 55.9183C59.8646 55.8037 60.2708 55.7464 60.7031 55.7464C61.3542 55.7464 61.9245 55.8401 62.4141 56.0276C62.9089 56.2151 63.2734 56.4703 63.5078 56.7933C63.7422 57.111 63.9036 57.5381 63.9922 58.0745L62.6172 58.262C62.5547 57.8349 62.3724 57.5016 62.0703 57.262C61.7734 57.0224 61.3516 56.9026 60.8047 56.9026C60.1589 56.9026 59.6979 57.0094 59.4219 57.223C59.1458 57.4365 59.0078 57.6865 59.0078 57.973C59.0078 58.1552 59.0651 58.3193 59.1797 58.4651C59.2943 58.6162 59.474 58.7412 59.7188 58.8401C59.8594 58.8922 60.2734 59.012 60.9609 59.1995C61.9557 59.4651 62.6484 59.6839 63.0391 59.8558C63.4349 60.0224 63.7448 60.2672 63.9688 60.5901C64.1927 60.9131 64.3047 61.3141 64.3047 61.7933C64.3047 62.262 64.1667 62.7047 63.8906 63.1214C63.6198 63.5328 63.2266 63.8532 62.7109 64.0823C62.1953 64.3063 61.612 64.4183 60.9609 64.4183C59.8828 64.4183 59.0599 64.1943 58.4922 63.7464C57.9297 63.2985 57.5703 62.6344 57.4141 61.7542ZM71.3906 63.2073C70.8698 63.65 70.3672 63.9625 69.8828 64.1448C69.4036 64.3271 68.888 64.4183 68.3359 64.4183C67.4245 64.4183 66.724 64.1969 66.2344 63.7542C65.7448 63.3063 65.5 62.736 65.5 62.0433C65.5 61.637 65.5911 61.2672 65.7734 60.9339C65.9609 60.5953 66.2031 60.3245 66.5 60.1214C66.8021 59.9183 67.1406 59.7646 67.5156 59.6605C67.7917 59.5875 68.2083 59.5172 68.7656 59.4495C69.901 59.3141 70.737 59.1526 71.2734 58.9651C71.2786 58.7724 71.2812 58.65 71.2812 58.598C71.2812 58.025 71.1484 57.6214 70.8828 57.387C70.5234 57.0693 69.9896 56.9105 69.2812 56.9105C68.6198 56.9105 68.1302 57.0276 67.8125 57.262C67.5 57.4912 67.2682 57.9 67.1172 58.4886L65.7422 58.3011C65.8672 57.7125 66.0729 57.2386 66.3594 56.8792C66.6458 56.5146 67.0599 56.236 67.6016 56.0433C68.1432 55.8453 68.7708 55.7464 69.4844 55.7464C70.1927 55.7464 70.7682 55.8297 71.2109 55.9964C71.6536 56.1631 71.9792 56.374 72.1875 56.6292C72.3958 56.8792 72.5417 57.1969 72.625 57.5823C72.6719 57.8219 72.6953 58.2542 72.6953 58.8792V60.7542C72.6953 62.0615 72.724 62.8896 72.7812 63.2386C72.8438 63.5823 72.9635 63.9131 73.1406 64.2308H71.6719C71.526 63.9391 71.4323 63.598 71.3906 63.2073ZM71.2734 60.0667C70.763 60.275 69.9974 60.4521 68.9766 60.598C68.3984 60.6813 67.9896 60.775 67.75 60.8792C67.5104 60.9834 67.3255 61.137 67.1953 61.3401C67.0651 61.5381 67 61.7594 67 62.0042C67 62.3792 67.1406 62.6917 67.4219 62.9417C67.7083 63.1917 68.125 63.3167 68.6719 63.3167C69.2135 63.3167 69.6953 63.1995 70.1172 62.9651C70.5391 62.7256 70.849 62.4 71.0469 61.9886C71.1979 61.6709 71.2734 61.2021 71.2734 60.5823V60.0667ZM74.8906 54.3948V52.7776H76.2969V54.3948H74.8906ZM74.8906 64.2308V55.9339H76.2969V64.2308H74.8906ZM78.4297 64.2308V55.9339H79.6953V57.1917C80.0182 56.6032 80.3151 56.2151 80.5859 56.0276C80.862 55.8401 81.1641 55.7464 81.4922 55.7464C81.9661 55.7464 82.4479 55.8974 82.9375 56.1995L82.4531 57.5042C82.1094 57.3011 81.7656 57.1995 81.4219 57.1995C81.1146 57.1995 80.8385 57.2933 80.5938 57.4808C80.349 57.6631 80.1745 57.9183 80.0703 58.2464C79.9141 58.7464 79.8359 59.2933 79.8359 59.887V64.2308H78.4297ZM89.4531 61.5589L90.9062 61.7386C90.6771 62.5875 90.2526 63.2464 89.6328 63.7151C89.013 64.1839 88.2214 64.4183 87.2578 64.4183C86.0443 64.4183 85.0807 64.0459 84.3672 63.3011C83.6589 62.5511 83.3047 61.5016 83.3047 60.1526C83.3047 58.7568 83.6641 57.6735 84.3828 56.9026C85.1016 56.1318 86.0339 55.7464 87.1797 55.7464C88.2891 55.7464 89.1953 56.124 89.8984 56.8792C90.6016 57.6344 90.9531 58.6969 90.9531 60.0667C90.9531 60.15 90.9505 60.275 90.9453 60.4417H84.7578C84.8099 61.3532 85.0677 62.0511 85.5312 62.5355C85.9948 63.0198 86.5729 63.262 87.2656 63.262C87.7812 63.262 88.2214 63.1266 88.5859 62.8558C88.9505 62.5849 89.2396 62.1526 89.4531 61.5589ZM84.8359 59.2855H89.4688C89.4062 58.5875 89.2292 58.0641 88.9375 57.7151C88.4896 57.1735 87.9089 56.9026 87.1953 56.9026C86.5495 56.9026 86.0052 57.1188 85.5625 57.5511C85.125 57.9834 84.8828 58.5615 84.8359 59.2855Z" fill="white"/>
<path d="M25.1719 100.231V88.7776H26.6875V98.8792H32.3281V100.231H25.1719ZM33.9688 90.3948V88.7776H35.375V90.3948H33.9688ZM33.9688 100.231V91.9339H35.375V100.231H33.9688ZM36.9609 97.7542L38.3516 97.5355C38.4297 98.0928 38.6458 98.5198 39 98.8167C39.3594 99.1136 39.8594 99.262 40.5 99.262C41.1458 99.262 41.625 99.1318 41.9375 98.8714C42.25 98.6058 42.4062 98.2959 42.4062 97.9417C42.4062 97.624 42.2682 97.374 41.9922 97.1917C41.7995 97.0667 41.3203 96.9079 40.5547 96.7151C39.5234 96.4547 38.8073 96.2308 38.4062 96.0433C38.0104 95.8506 37.7083 95.5875 37.5 95.2542C37.2969 94.9157 37.1953 94.5433 37.1953 94.137C37.1953 93.7672 37.2786 93.4261 37.4453 93.1136C37.6172 92.7959 37.849 92.5329 38.1406 92.3245C38.3594 92.1631 38.6562 92.0276 39.0312 91.9183C39.4115 91.8037 39.8177 91.7464 40.25 91.7464C40.901 91.7464 41.4714 91.8401 41.9609 92.0276C42.4557 92.2151 42.8203 92.4704 43.0547 92.7933C43.2891 93.111 43.4505 93.5381 43.5391 94.0745L42.1641 94.262C42.1016 93.8349 41.9193 93.5016 41.6172 93.262C41.3203 93.0224 40.8984 92.9026 40.3516 92.9026C39.7057 92.9026 39.2448 93.0094 38.9688 93.223C38.6927 93.4365 38.5547 93.6865 38.5547 93.973C38.5547 94.1553 38.612 94.3193 38.7266 94.4651C38.8411 94.6162 39.0208 94.7412 39.2656 94.8401C39.4062 94.8922 39.8203 95.012 40.5078 95.1995C41.5026 95.4651 42.1953 95.6839 42.5859 95.8558C42.9818 96.0224 43.2917 96.2672 43.5156 96.5901C43.7396 96.9131 43.8516 97.3141 43.8516 97.7933C43.8516 98.262 43.7135 98.7047 43.4375 99.1214C43.1667 99.5329 42.7734 99.8532 42.2578 100.082C41.7422 100.306 41.1589 100.418 40.5078 100.418C39.4297 100.418 38.6068 100.194 38.0391 99.7464C37.4766 99.2985 37.1172 98.6344 36.9609 97.7542ZM48.5938 98.973L48.7969 100.215C48.401 100.298 48.0469 100.34 47.7344 100.34C47.224 100.34 46.8281 100.259 46.5469 100.098C46.2656 99.9365 46.0677 99.7256 45.9531 99.4651C45.8385 99.1995 45.7812 98.6448 45.7812 97.8011V93.0276H44.75V91.9339H45.7812V89.8792L47.1797 89.0355V91.9339H48.5938V93.0276H47.1797V97.8792C47.1797 98.2803 47.2031 98.5381 47.25 98.6526C47.3021 98.7672 47.3828 98.8584 47.4922 98.9261C47.6068 98.9938 47.7682 99.0276 47.9766 99.0276C48.1328 99.0276 48.3385 99.0094 48.5938 98.973ZM55.6562 97.5589L57.1094 97.7386C56.8802 98.5875 56.4557 99.2464 55.8359 99.7151C55.2161 100.184 54.4245 100.418 53.4609 100.418C52.2474 100.418 51.2839 100.046 50.5703 99.3011C49.862 98.5511 49.5078 97.5016 49.5078 96.1526C49.5078 94.7568 49.8672 93.6735 50.5859 92.9026C51.3047 92.1318 52.237 91.7464 53.3828 91.7464C54.4922 91.7464 55.3984 92.124 56.1016 92.8792C56.8047 93.6344 57.1562 94.6969 57.1562 96.0667C57.1562 96.15 57.1536 96.275 57.1484 96.4417H50.9609C51.013 97.3532 51.2708 98.0511 51.7344 98.5355C52.1979 99.0198 52.776 99.262 53.4688 99.262C53.9844 99.262 54.4245 99.1266 54.7891 98.8558C55.1536 98.5849 55.4427 98.1526 55.6562 97.5589ZM51.0391 95.2855H55.6719C55.6094 94.5875 55.4323 94.0641 55.1406 93.7151C54.6927 93.1735 54.112 92.9026 53.3984 92.9026C52.7526 92.9026 52.2083 93.1188 51.7656 93.5511C51.3281 93.9834 51.0859 94.5615 51.0391 95.2855ZM68.7188 100.231V99.1839C68.1927 100.007 67.4193 100.418 66.3984 100.418C65.737 100.418 65.1276 100.236 64.5703 99.8714C64.0182 99.5068 63.5885 98.999 63.2812 98.348C62.9792 97.6917 62.8281 96.9391 62.8281 96.0901C62.8281 95.262 62.9661 94.512 63.2422 93.8401C63.5182 93.1631 63.9323 92.6448 64.4844 92.2855C65.0365 91.9261 65.6536 91.7464 66.3359 91.7464C66.8359 91.7464 67.2812 91.8532 67.6719 92.0667C68.0625 92.275 68.3802 92.5485 68.625 92.887V88.7776H70.0234V100.231H68.7188ZM64.2734 96.0901C64.2734 97.1526 64.4974 97.9469 64.9453 98.473C65.3932 98.999 65.9219 99.262 66.5312 99.262C67.1458 99.262 67.6667 99.012 68.0938 98.512C68.526 98.0068 68.7422 97.2386 68.7422 96.2073C68.7422 95.0719 68.5234 94.2386 68.0859 93.7073C67.6484 93.1761 67.1094 92.9105 66.4688 92.9105C65.8438 92.9105 65.3203 93.1657 64.8984 93.6761C64.4818 94.1865 64.2734 94.9912 64.2734 96.0901ZM77.9219 97.5589L79.375 97.7386C79.1458 98.5875 78.7214 99.2464 78.1016 99.7151C77.4818 100.184 76.6901 100.418 75.7266 100.418C74.513 100.418 73.5495 100.046 72.8359 99.3011C72.1276 98.5511 71.7734 97.5016 71.7734 96.1526C71.7734 94.7568 72.1328 93.6735 72.8516 92.9026C73.5703 92.1318 74.5026 91.7464 75.6484 91.7464C76.7578 91.7464 77.6641 92.124 78.3672 92.8792C79.0703 93.6344 79.4219 94.6969 79.4219 96.0667C79.4219 96.15 79.4193 96.275 79.4141 96.4417H73.2266C73.2786 97.3532 73.5365 98.0511 74 98.5355C74.4635 99.0198 75.0417 99.262 75.7344 99.262C76.25 99.262 76.6901 99.1266 77.0547 98.8558C77.4193 98.5849 77.7083 98.1526 77.9219 97.5589ZM73.3047 95.2855H77.9375C77.875 94.5875 77.6979 94.0641 77.4062 93.7151C76.9583 93.1735 76.3776 92.9026 75.6641 92.9026C75.0182 92.9026 74.474 93.1188 74.0312 93.5511C73.5938 93.9834 73.3516 94.5615 73.3047 95.2855ZM80.5859 97.7542L81.9766 97.5355C82.0547 98.0928 82.2708 98.5198 82.625 98.8167C82.9844 99.1136 83.4844 99.262 84.125 99.262C84.7708 99.262 85.25 99.1318 85.5625 98.8714C85.875 98.6058 86.0312 98.2959 86.0312 97.9417C86.0312 97.624 85.8932 97.374 85.6172 97.1917C85.4245 97.0667 84.9453 96.9079 84.1797 96.7151C83.1484 96.4547 82.4323 96.2308 82.0312 96.0433C81.6354 95.8506 81.3333 95.5875 81.125 95.2542C80.9219 94.9157 80.8203 94.5433 80.8203 94.137C80.8203 93.7672 80.9036 93.4261 81.0703 93.1136C81.2422 92.7959 81.474 92.5329 81.7656 92.3245C81.9844 92.1631 82.2812 92.0276 82.6562 91.9183C83.0365 91.8037 83.4427 91.7464 83.875 91.7464C84.526 91.7464 85.0964 91.8401 85.5859 92.0276C86.0807 92.2151 86.4453 92.4704 86.6797 92.7933C86.9141 93.111 87.0755 93.5381 87.1641 94.0745L85.7891 94.262C85.7266 93.8349 85.5443 93.5016 85.2422 93.262C84.9453 93.0224 84.5234 92.9026 83.9766 92.9026C83.3307 92.9026 82.8698 93.0094 82.5938 93.223C82.3177 93.4365 82.1797 93.6865 82.1797 93.973C82.1797 94.1553 82.237 94.3193 82.3516 94.4651C82.4661 94.6162 82.6458 94.7412 82.8906 94.8401C83.0312 94.8922 83.4453 95.012 84.1328 95.1995C85.1276 95.4651 85.8203 95.6839 86.2109 95.8558C86.6068 96.0224 86.9167 96.2672 87.1406 96.5901C87.3646 96.9131 87.4766 97.3141 87.4766 97.7933C87.4766 98.262 87.3385 98.7047 87.0625 99.1214C86.7917 99.5329 86.3984 99.8532 85.8828 100.082C85.3672 100.306 84.7839 100.418 84.1328 100.418C83.0547 100.418 82.2318 100.194 81.6641 99.7464C81.1016 99.2985 80.7422 98.6344 80.5859 97.7542ZM96.6719 98.973L96.875 100.215C96.4792 100.298 96.125 100.34 95.8125 100.34C95.3021 100.34 94.9062 100.259 94.625 100.098C94.3438 99.9365 94.1458 99.7256 94.0312 99.4651C93.9167 99.1995 93.8594 98.6448 93.8594 97.8011V93.0276H92.8281V91.9339H93.8594V89.8792L95.2578 89.0355V91.9339H96.6719V93.0276H95.2578V97.8792C95.2578 98.2803 95.2812 98.5381 95.3281 98.6526C95.3802 98.7672 95.4609 98.8584 95.5703 98.9261C95.6849 98.9938 95.8464 99.0276 96.0547 99.0276C96.2109 99.0276 96.4167 99.0094 96.6719 98.973ZM103.734 97.5589L105.188 97.7386C104.958 98.5875 104.534 99.2464 103.914 99.7151C103.294 100.184 102.503 100.418 101.539 100.418C100.326 100.418 99.362 100.046 98.6484 99.3011C97.9401 98.5511 97.5859 97.5016 97.5859 96.1526C97.5859 94.7568 97.9453 93.6735 98.6641 92.9026C99.3828 92.1318 100.315 91.7464 101.461 91.7464C102.57 91.7464 103.477 92.124 104.18 92.8792C104.883 93.6344 105.234 94.6969 105.234 96.0667C105.234 96.15 105.232 96.275 105.227 96.4417H99.0391C99.0911 97.3532 99.349 98.0511 99.8125 98.5355C100.276 99.0198 100.854 99.262 101.547 99.262C102.062 99.262 102.503 99.1266 102.867 98.8558C103.232 98.5849 103.521 98.1526 103.734 97.5589ZM99.1172 95.2855H103.75C103.688 94.5875 103.51 94.0641 103.219 93.7151C102.771 93.1735 102.19 92.9026 101.477 92.9026C100.831 92.9026 100.286 93.1188 99.8438 93.5511C99.4062 93.9834 99.1641 94.5615 99.1172 95.2855ZM106.945 100.231V91.9339H108.211V93.1917C108.534 92.6032 108.831 92.2151 109.102 92.0276C109.378 91.8401 109.68 91.7464 110.008 91.7464C110.482 91.7464 110.964 91.8974 111.453 92.1995L110.969 93.5042C110.625 93.3011 110.281 93.1995 109.938 93.1995C109.63 93.1995 109.354 93.2933 109.109 93.4808C108.865 93.6631 108.69 93.9183 108.586 94.2464C108.43 94.7464 108.352 95.2933 108.352 95.887V100.231H106.945ZM112.289 100.231V91.9339H113.547V93.098C113.807 92.6917 114.154 92.3662 114.586 92.1214C115.018 91.8714 115.51 91.7464 116.062 91.7464C116.677 91.7464 117.18 91.874 117.57 92.1292C117.966 92.3844 118.245 92.7412 118.406 93.1995C119.062 92.2308 119.917 91.7464 120.969 91.7464C121.792 91.7464 122.424 91.9756 122.867 92.4339C123.31 92.887 123.531 93.5875 123.531 94.5355V100.231H122.133V95.0042C122.133 94.4417 122.086 94.0381 121.992 93.7933C121.904 93.5433 121.74 93.3428 121.5 93.1917C121.26 93.0407 120.979 92.9651 120.656 92.9651C120.073 92.9651 119.589 93.1605 119.203 93.5511C118.818 93.9365 118.625 94.5563 118.625 95.4105V100.231H117.219V94.8401C117.219 94.2151 117.104 93.7464 116.875 93.4339C116.646 93.1214 116.271 92.9651 115.75 92.9651C115.354 92.9651 114.987 93.0693 114.648 93.2776C114.315 93.486 114.073 93.7907 113.922 94.1917C113.771 94.5928 113.695 95.1709 113.695 95.9261V100.231H112.289ZM131.297 97.5589L132.75 97.7386C132.521 98.5875 132.096 99.2464 131.477 99.7151C130.857 100.184 130.065 100.418 129.102 100.418C127.888 100.418 126.924 100.046 126.211 99.3011C125.503 98.5511 125.148 97.5016 125.148 96.1526C125.148 94.7568 125.508 93.6735 126.227 92.9026C126.945 92.1318 127.878 91.7464 129.023 91.7464C130.133 91.7464 131.039 92.124 131.742 92.8792C132.445 93.6344 132.797 94.6969 132.797 96.0667C132.797 96.15 132.794 96.275 132.789 96.4417H126.602C126.654 97.3532 126.911 98.0511 127.375 98.5355C127.839 99.0198 128.417 99.262 129.109 99.262C129.625 99.262 130.065 99.1266 130.43 98.8558C130.794 98.5849 131.083 98.1526 131.297 97.5589ZM126.68 95.2855H131.312C131.25 94.5875 131.073 94.0641 130.781 93.7151C130.333 93.1735 129.753 92.9026 129.039 92.9026C128.393 92.9026 127.849 93.1188 127.406 93.5511C126.969 93.9834 126.727 94.5615 126.68 95.2855ZM133.961 97.7542L135.352 97.5355C135.43 98.0928 135.646 98.5198 136 98.8167C136.359 99.1136 136.859 99.262 137.5 99.262C138.146 99.262 138.625 99.1318 138.938 98.8714C139.25 98.6058 139.406 98.2959 139.406 97.9417C139.406 97.624 139.268 97.374 138.992 97.1917C138.799 97.0667 138.32 96.9079 137.555 96.7151C136.523 96.4547 135.807 96.2308 135.406 96.0433C135.01 95.8506 134.708 95.5875 134.5 95.2542C134.297 94.9157 134.195 94.5433 134.195 94.137C134.195 93.7672 134.279 93.4261 134.445 93.1136C134.617 92.7959 134.849 92.5329 135.141 92.3245C135.359 92.1631 135.656 92.0276 136.031 91.9183C136.411 91.8037 136.818 91.7464 137.25 91.7464C137.901 91.7464 138.471 91.8401 138.961 92.0276C139.456 92.2151 139.82 92.4704 140.055 92.7933C140.289 93.111 140.451 93.5381 140.539 94.0745L139.164 94.262C139.102 93.8349 138.919 93.5016 138.617 93.262C138.32 93.0224 137.898 92.9026 137.352 92.9026C136.706 92.9026 136.245 93.0094 135.969 93.223C135.693 93.4365 135.555 93.6865 135.555 93.973C135.555 94.1553 135.612 94.3193 135.727 94.4651C135.841 94.6162 136.021 94.7412 136.266 94.8401C136.406 94.8922 136.82 95.012 137.508 95.1995C138.503 95.4651 139.195 95.6839 139.586 95.8558C139.982 96.0224 140.292 96.2672 140.516 96.5901C140.74 96.9131 140.852 97.3141 140.852 97.7933C140.852 98.262 140.714 98.7047 140.438 99.1214C140.167 99.5329 139.773 99.8532 139.258 100.082C138.742 100.306 138.159 100.418 137.508 100.418C136.43 100.418 135.607 100.194 135.039 99.7464C134.477 99.2985 134.117 98.6344 133.961 97.7542ZM146.414 97.7542L147.805 97.5355C147.883 98.0928 148.099 98.5198 148.453 98.8167C148.812 99.1136 149.312 99.262 149.953 99.262C150.599 99.262 151.078 99.1318 151.391 98.8714C151.703 98.6058 151.859 98.2959 151.859 97.9417C151.859 97.624 151.721 97.374 151.445 97.1917C151.253 97.0667 150.773 96.9079 150.008 96.7151C148.977 96.4547 148.26 96.2308 147.859 96.0433C147.464 95.8506 147.161 95.5875 146.953 95.2542C146.75 94.9157 146.648 94.5433 146.648 94.137C146.648 93.7672 146.732 93.4261 146.898 93.1136C147.07 92.7959 147.302 92.5329 147.594 92.3245C147.812 92.1631 148.109 92.0276 148.484 91.9183C148.865 91.8037 149.271 91.7464 149.703 91.7464C150.354 91.7464 150.924 91.8401 151.414 92.0276C151.909 92.2151 152.273 92.4704 152.508 92.7933C152.742 93.111 152.904 93.5381 152.992 94.0745L151.617 94.262C151.555 93.8349 151.372 93.5016 151.07 93.262C150.773 93.0224 150.352 92.9026 149.805 92.9026C149.159 92.9026 148.698 93.0094 148.422 93.223C148.146 93.4365 148.008 93.6865 148.008 93.973C148.008 94.1553 148.065 94.3193 148.18 94.4651C148.294 94.6162 148.474 94.7412 148.719 94.8401C148.859 94.8922 149.273 95.012 149.961 95.1995C150.956 95.4651 151.648 95.6839 152.039 95.8558C152.435 96.0224 152.745 96.2672 152.969 96.5901C153.193 96.9131 153.305 97.3141 153.305 97.7933C153.305 98.262 153.167 98.7047 152.891 99.1214C152.62 99.5329 152.227 99.8532 151.711 100.082C151.195 100.306 150.612 100.418 149.961 100.418C148.883 100.418 148.06 100.194 147.492 99.7464C146.93 99.2985 146.57 98.6344 146.414 97.7542ZM154.977 103.41V91.9339H156.258V93.012C156.56 92.5901 156.901 92.275 157.281 92.0667C157.661 91.8532 158.122 91.7464 158.664 91.7464C159.372 91.7464 159.997 91.9287 160.539 92.2933C161.081 92.6579 161.49 93.1735 161.766 93.8401C162.042 94.5016 162.18 95.2282 162.18 96.0198C162.18 96.8688 162.026 97.6344 161.719 98.3167C161.417 98.9938 160.974 99.5146 160.391 99.8792C159.812 100.239 159.203 100.418 158.562 100.418C158.094 100.418 157.672 100.319 157.297 100.121C156.927 99.9235 156.622 99.6735 156.383 99.3714V103.41H154.977ZM156.25 96.1292C156.25 97.1969 156.466 97.986 156.898 98.4964C157.331 99.0068 157.854 99.262 158.469 99.262C159.094 99.262 159.628 98.999 160.07 98.473C160.518 97.9417 160.742 97.1214 160.742 96.012C160.742 94.9547 160.523 94.1631 160.086 93.637C159.654 93.111 159.135 92.848 158.531 92.848C157.932 92.848 157.401 93.1292 156.938 93.6917C156.479 94.249 156.25 95.0615 156.25 96.1292ZM169.562 97.5589L171.016 97.7386C170.786 98.5875 170.362 99.2464 169.742 99.7151C169.122 100.184 168.331 100.418 167.367 100.418C166.154 100.418 165.19 100.046 164.477 99.3011C163.768 98.5511 163.414 97.5016 163.414 96.1526C163.414 94.7568 163.773 93.6735 164.492 92.9026C165.211 92.1318 166.143 91.7464 167.289 91.7464C168.398 91.7464 169.305 92.124 170.008 92.8792C170.711 93.6344 171.062 94.6969 171.062 96.0667C171.062 96.15 171.06 96.275 171.055 96.4417H164.867C164.919 97.3532 165.177 98.0511 165.641 98.5355C166.104 99.0198 166.682 99.262 167.375 99.262C167.891 99.262 168.331 99.1266 168.695 98.8558C169.06 98.5849 169.349 98.1526 169.562 97.5589ZM164.945 95.2855H169.578C169.516 94.5875 169.339 94.0641 169.047 93.7151C168.599 93.1735 168.018 92.9026 167.305 92.9026C166.659 92.9026 166.115 93.1188 165.672 93.5511C165.234 93.9834 164.992 94.5615 164.945 95.2855ZM166.461 90.9026L167.5 88.7151H169.344L167.625 90.9026H166.461ZM178.203 97.1917L179.586 97.3714C179.435 98.3245 179.047 99.0719 178.422 99.6136C177.802 100.15 177.039 100.418 176.133 100.418C174.997 100.418 174.083 100.048 173.391 99.3089C172.703 98.5641 172.359 97.499 172.359 96.1136C172.359 95.2178 172.508 94.4339 172.805 93.762C173.102 93.0901 173.552 92.5875 174.156 92.2542C174.766 91.9157 175.427 91.7464 176.141 91.7464C177.042 91.7464 177.779 91.9756 178.352 92.4339C178.924 92.887 179.292 93.5329 179.453 94.3714L178.086 94.5823C177.956 94.025 177.724 93.6058 177.391 93.3245C177.062 93.0433 176.664 92.9026 176.195 92.9026C175.487 92.9026 174.911 93.1579 174.469 93.6683C174.026 94.1735 173.805 94.9756 173.805 96.0745C173.805 97.1891 174.018 97.999 174.445 98.5042C174.872 99.0094 175.43 99.262 176.117 99.262C176.669 99.262 177.13 99.0928 177.5 98.7542C177.87 98.4157 178.104 97.8948 178.203 97.1917ZM180.797 90.3948V88.7776H182.203V90.3948H180.797ZM180.797 100.231V91.9339H182.203V100.231H180.797ZM184.688 100.231V93.0276H183.445V91.9339H184.688V91.0511C184.688 90.4938 184.737 90.0797 184.836 89.8089C184.971 89.4443 185.208 89.15 185.547 88.9261C185.891 88.6969 186.37 88.5823 186.984 88.5823C187.38 88.5823 187.818 88.6292 188.297 88.723L188.086 89.9495C187.794 89.8974 187.518 89.8714 187.258 89.8714C186.831 89.8714 186.529 89.9625 186.352 90.1448C186.174 90.3271 186.086 90.6683 186.086 91.1683V91.9339H187.703V93.0276H186.086V100.231H184.688ZM188.812 90.3948V88.7776H190.219V90.3948H188.812ZM188.812 100.231V91.9339H190.219V100.231H188.812ZM197.656 103.41V99.348C197.438 99.6553 197.13 99.9105 196.734 100.114C196.344 100.317 195.927 100.418 195.484 100.418C194.5 100.418 193.651 100.025 192.938 99.2386C192.229 98.4521 191.875 97.374 191.875 96.0042C191.875 95.1709 192.018 94.4235 192.305 93.762C192.596 93.1006 193.016 92.6006 193.562 92.262C194.115 91.9183 194.719 91.7464 195.375 91.7464C196.401 91.7464 197.208 92.1787 197.797 93.0433V91.9339H199.062V103.41H197.656ZM193.32 96.0589C193.32 97.1266 193.544 97.9287 193.992 98.4651C194.44 98.9964 194.977 99.262 195.602 99.262C196.201 99.262 196.716 99.0094 197.148 98.5042C197.581 97.9938 197.797 97.2204 197.797 96.1839C197.797 95.0797 197.568 94.249 197.109 93.6917C196.656 93.1344 196.122 92.8558 195.508 92.8558C194.898 92.8558 194.38 93.1162 193.953 93.637C193.531 94.1526 193.32 94.9599 193.32 96.0589ZM206.711 100.231V99.012C206.065 99.9495 205.188 100.418 204.078 100.418C203.589 100.418 203.13 100.325 202.703 100.137C202.281 99.9495 201.966 99.7151 201.758 99.4339C201.555 99.1474 201.411 98.7985 201.328 98.387C201.271 98.111 201.242 97.6735 201.242 97.0745V91.9339H202.648V96.5355C202.648 97.2698 202.677 97.7646 202.734 98.0198C202.823 98.3896 203.01 98.6813 203.297 98.8948C203.583 99.1032 203.938 99.2073 204.359 99.2073C204.781 99.2073 205.177 99.1006 205.547 98.887C205.917 98.6683 206.177 98.374 206.328 98.0042C206.484 97.6292 206.562 97.0875 206.562 96.3792V91.9339H207.969V100.231H206.711ZM215.859 97.5589L217.312 97.7386C217.083 98.5875 216.659 99.2464 216.039 99.7151C215.419 100.184 214.628 100.418 213.664 100.418C212.451 100.418 211.487 100.046 210.773 99.3011C210.065 98.5511 209.711 97.5016 209.711 96.1526C209.711 94.7568 210.07 93.6735 210.789 92.9026C211.508 92.1318 212.44 91.7464 213.586 91.7464C214.695 91.7464 215.602 92.124 216.305 92.8792C217.008 93.6344 217.359 94.6969 217.359 96.0667C217.359 96.15 217.357 96.275 217.352 96.4417H211.164C211.216 97.3532 211.474 98.0511 211.938 98.5355C212.401 99.0198 212.979 99.262 213.672 99.262C214.188 99.262 214.628 99.1266 214.992 98.8558C215.357 98.5849 215.646 98.1526 215.859 97.5589ZM211.242 95.2855H215.875C215.812 94.5875 215.635 94.0641 215.344 93.7151C214.896 93.1735 214.315 92.9026 213.602 92.9026C212.956 92.9026 212.411 93.1188 211.969 93.5511C211.531 93.9834 211.289 94.5615 211.242 95.2855ZM218.523 97.7542L219.914 97.5355C219.992 98.0928 220.208 98.5198 220.562 98.8167C220.922 99.1136 221.422 99.262 222.062 99.262C222.708 99.262 223.188 99.1318 223.5 98.8714C223.812 98.6058 223.969 98.2959 223.969 97.9417C223.969 97.624 223.831 97.374 223.555 97.1917C223.362 97.0667 222.883 96.9079 222.117 96.7151C221.086 96.4547 220.37 96.2308 219.969 96.0433C219.573 95.8506 219.271 95.5875 219.062 95.2542C218.859 94.9157 218.758 94.5433 218.758 94.137C218.758 93.7672 218.841 93.4261 219.008 93.1136C219.18 92.7959 219.411 92.5329 219.703 92.3245C219.922 92.1631 220.219 92.0276 220.594 91.9183C220.974 91.8037 221.38 91.7464 221.812 91.7464C222.464 91.7464 223.034 91.8401 223.523 92.0276C224.018 92.2151 224.383 92.4704 224.617 92.7933C224.852 93.111 225.013 93.5381 225.102 94.0745L223.727 94.262C223.664 93.8349 223.482 93.5016 223.18 93.262C222.883 93.0224 222.461 92.9026 221.914 92.9026C221.268 92.9026 220.807 93.0094 220.531 93.223C220.255 93.4365 220.117 93.6865 220.117 93.973C220.117 94.1553 220.174 94.3193 220.289 94.4651C220.404 94.6162 220.583 94.7412 220.828 94.8401C220.969 94.8922 221.383 95.012 222.07 95.1995C223.065 95.4651 223.758 95.6839 224.148 95.8558C224.544 96.0224 224.854 96.2672 225.078 96.5901C225.302 96.9131 225.414 97.3141 225.414 97.7933C225.414 98.262 225.276 98.7047 225 99.1214C224.729 99.5329 224.336 99.8532 223.82 100.082C223.305 100.306 222.721 100.418 222.07 100.418C220.992 100.418 220.169 100.194 219.602 99.7464C219.039 99.2985 218.68 98.6344 218.523 97.7542ZM236.977 100.231V99.012C236.331 99.9495 235.453 100.418 234.344 100.418C233.854 100.418 233.396 100.325 232.969 100.137C232.547 99.9495 232.232 99.7151 232.023 99.4339C231.82 99.1474 231.677 98.7985 231.594 98.387C231.536 98.111 231.508 97.6735 231.508 97.0745V91.9339H232.914V96.5355C232.914 97.2698 232.943 97.7646 233 98.0198C233.089 98.3896 233.276 98.6813 233.562 98.8948C233.849 99.1032 234.203 99.2073 234.625 99.2073C235.047 99.2073 235.443 99.1006 235.812 98.887C236.182 98.6683 236.443 98.374 236.594 98.0042C236.75 97.6292 236.828 97.0875 236.828 96.3792V91.9339H238.234V100.231H236.977ZM243.516 98.973L243.719 100.215C243.323 100.298 242.969 100.34 242.656 100.34C242.146 100.34 241.75 100.259 241.469 100.098C241.188 99.9365 240.99 99.7256 240.875 99.4651C240.76 99.1995 240.703 98.6448 240.703 97.8011V93.0276H239.672V91.9339H240.703V89.8792L242.102 89.0355V91.9339H243.516V93.0276H242.102V97.8792C242.102 98.2803 242.125 98.5381 242.172 98.6526C242.224 98.7672 242.305 98.8584 242.414 98.9261C242.529 98.9938 242.69 99.0276 242.898 99.0276C243.055 99.0276 243.26 99.0094 243.516 98.973ZM244.906 90.3948V88.7776H246.312V90.3948H244.906ZM244.906 100.231V91.9339H246.312V100.231H244.906ZM248.43 100.231V88.7776H249.836V100.231H248.43ZM252.031 90.3948V88.7776H253.438V90.3948H252.031ZM252.031 100.231V91.9339H253.438V100.231H252.031ZM255.023 97.7542L256.414 97.5355C256.492 98.0928 256.708 98.5198 257.062 98.8167C257.422 99.1136 257.922 99.262 258.562 99.262C259.208 99.262 259.688 99.1318 260 98.8714C260.312 98.6058 260.469 98.2959 260.469 97.9417C260.469 97.624 260.331 97.374 260.055 97.1917C259.862 97.0667 259.383 96.9079 258.617 96.7151C257.586 96.4547 256.87 96.2308 256.469 96.0433C256.073 95.8506 255.771 95.5875 255.562 95.2542C255.359 94.9157 255.258 94.5433 255.258 94.137C255.258 93.7672 255.341 93.4261 255.508 93.1136C255.68 92.7959 255.911 92.5329 256.203 92.3245C256.422 92.1631 256.719 92.0276 257.094 91.9183C257.474 91.8037 257.88 91.7464 258.312 91.7464C258.964 91.7464 259.534 91.8401 260.023 92.0276C260.518 92.2151 260.883 92.4704 261.117 92.7933C261.352 93.111 261.513 93.5381 261.602 94.0745L260.227 94.262C260.164 93.8349 259.982 93.5016 259.68 93.262C259.383 93.0224 258.961 92.9026 258.414 92.9026C257.768 92.9026 257.307 93.0094 257.031 93.223C256.755 93.4365 256.617 93.6865 256.617 93.973C256.617 94.1553 256.674 94.3193 256.789 94.4651C256.904 94.6162 257.083 94.7412 257.328 94.8401C257.469 94.8922 257.883 95.012 258.57 95.1995C259.565 95.4651 260.258 95.6839 260.648 95.8558C261.044 96.0224 261.354 96.2672 261.578 96.5901C261.802 96.9131 261.914 97.3141 261.914 97.7933C261.914 98.262 261.776 98.7047 261.5 99.1214C261.229 99.5329 260.836 99.8532 260.32 100.082C259.805 100.306 259.221 100.418 258.57 100.418C257.492 100.418 256.669 100.194 256.102 99.7464C255.539 99.2985 255.18 98.6344 255.023 97.7542ZM269.266 97.5589L270.719 97.7386C270.49 98.5875 270.065 99.2464 269.445 99.7151C268.826 100.184 268.034 100.418 267.07 100.418C265.857 100.418 264.893 100.046 264.18 99.3011C263.471 98.5511 263.117 97.5016 263.117 96.1526C263.117 94.7568 263.477 93.6735 264.195 92.9026C264.914 92.1318 265.846 91.7464 266.992 91.7464C268.102 91.7464 269.008 92.124 269.711 92.8792C270.414 93.6344 270.766 94.6969 270.766 96.0667C270.766 96.15 270.763 96.275 270.758 96.4417H264.57C264.622 97.3532 264.88 98.0511 265.344 98.5355C265.807 99.0198 266.385 99.262 267.078 99.262C267.594 99.262 268.034 99.1266 268.398 98.8558C268.763 98.5849 269.052 98.1526 269.266 97.5589ZM264.648 95.2855H269.281C269.219 94.5875 269.042 94.0641 268.75 93.7151C268.302 93.1735 267.721 92.9026 267.008 92.9026C266.362 92.9026 265.818 93.1188 265.375 93.5511C264.938 93.9834 264.695 94.5615 264.648 95.2855ZM266.164 90.9026L267.203 88.7151H269.047L267.328 90.9026H266.164ZM271.93 97.7542L273.32 97.5355C273.398 98.0928 273.615 98.5198 273.969 98.8167C274.328 99.1136 274.828 99.262 275.469 99.262C276.115 99.262 276.594 99.1318 276.906 98.8714C277.219 98.6058 277.375 98.2959 277.375 97.9417C277.375 97.624 277.237 97.374 276.961 97.1917C276.768 97.0667 276.289 96.9079 275.523 96.7151C274.492 96.4547 273.776 96.2308 273.375 96.0433C272.979 95.8506 272.677 95.5875 272.469 95.2542C272.266 94.9157 272.164 94.5433 272.164 94.137C272.164 93.7672 272.247 93.4261 272.414 93.1136C272.586 92.7959 272.818 92.5329 273.109 92.3245C273.328 92.1631 273.625 92.0276 274 91.9183C274.38 91.8037 274.786 91.7464 275.219 91.7464C275.87 91.7464 276.44 91.8401 276.93 92.0276C277.424 92.2151 277.789 92.4704 278.023 92.7933C278.258 93.111 278.419 93.5381 278.508 94.0745L277.133 94.262C277.07 93.8349 276.888 93.5016 276.586 93.262C276.289 93.0224 275.867 92.9026 275.32 92.9026C274.674 92.9026 274.214 93.0094 273.938 93.223C273.661 93.4365 273.523 93.6865 273.523 93.973C273.523 94.1553 273.581 94.3193 273.695 94.4651C273.81 94.6162 273.99 94.7412 274.234 94.8401C274.375 94.8922 274.789 95.012 275.477 95.1995C276.471 95.4651 277.164 95.6839 277.555 95.8558C277.951 96.0224 278.26 96.2672 278.484 96.5901C278.708 96.9131 278.82 97.3141 278.82 97.7933C278.82 98.262 278.682 98.7047 278.406 99.1214C278.135 99.5329 277.742 99.8532 277.227 100.082C276.711 100.306 276.128 100.418 275.477 100.418C274.398 100.418 273.576 100.194 273.008 99.7464C272.445 99.2985 272.086 98.6344 271.93 97.7542Z" fill="#F3E8FF"/>
<defs>
<linearGradient id="paint0_linear_4_233" x1="0" y1="105" x2="393" y2="105" gradientUnits="userSpaceOnUse">
<stop stop-color="#9810FA"/>
<stop offset="1" stop-color="#7F22FE"/>
</linearGradient>
</defs>
</svg>
