<svg width="393" height="180" viewBox="0 0 393 180" fill="none" xmlns="http://www.w3.org/2000/svg">
<rect width="393" height="180" fill="url(#paint0_linear_4_210)"/>
<path d="M33.4062 60.2151L34.9219 60.598C34.6042 61.8427 34.0312 62.7933 33.2031 63.4495C32.3802 64.1006 31.3724 64.4261 30.1797 64.4261C28.9453 64.4261 27.9401 64.1761 27.1641 63.6761C26.3932 63.1709 25.8047 62.4417 25.3984 61.4886C24.9974 60.5355 24.7969 59.512 24.7969 58.4183C24.7969 57.2256 25.0234 56.1865 25.4766 55.3011C25.9349 54.4105 26.5833 53.736 27.4219 53.2776C28.2656 52.8141 29.1927 52.5823 30.2031 52.5823C31.349 52.5823 32.3125 52.874 33.0938 53.4573C33.875 54.0407 34.4193 54.861 34.7266 55.9183L33.2344 56.2698C32.9688 55.4365 32.5833 54.8297 32.0781 54.4495C31.5729 54.0693 30.9375 53.8792 30.1719 53.8792C29.2917 53.8792 28.5547 54.0901 27.9609 54.512C27.3724 54.9339 26.9583 55.5016 26.7188 56.2151C26.4792 56.9235 26.3594 57.6552 26.3594 58.4105C26.3594 59.3844 26.5 60.236 26.7812 60.9651C27.0677 61.6891 27.5104 62.2308 28.1094 62.5901C28.7083 62.9495 29.3568 63.1292 30.0547 63.1292C30.9036 63.1292 31.6224 62.8844 32.2109 62.3948C32.7995 61.9052 33.1979 61.1787 33.4062 60.2151ZM36.0938 60.0823C36.0938 58.5459 36.5208 57.4078 37.375 56.6683C38.0885 56.0537 38.9583 55.7464 39.9844 55.7464C41.125 55.7464 42.0573 56.1214 42.7812 56.8714C43.5052 57.6162 43.8672 58.6474 43.8672 59.9651C43.8672 61.0328 43.7057 61.874 43.3828 62.4886C43.0651 63.098 42.599 63.5719 41.9844 63.9105C41.375 64.249 40.7083 64.4183 39.9844 64.4183C38.8229 64.4183 37.8828 64.0459 37.1641 63.3011C36.4505 62.5563 36.0938 61.4834 36.0938 60.0823ZM37.5391 60.0823C37.5391 61.1448 37.7708 61.9417 38.2344 62.473C38.6979 62.999 39.2812 63.262 39.9844 63.262C40.6823 63.262 41.263 62.9964 41.7266 62.4651C42.1901 61.9339 42.4219 61.124 42.4219 60.0355C42.4219 59.0094 42.1875 58.2334 41.7188 57.7073C41.2552 57.1761 40.6771 56.9105 39.9844 56.9105C39.2812 56.9105 38.6979 57.1735 38.2344 57.6995C37.7708 58.2256 37.5391 59.0198 37.5391 60.0823ZM45.5234 64.2308V55.9339H46.7891V57.1136C47.3984 56.2021 48.2786 55.7464 49.4297 55.7464C49.9297 55.7464 50.388 55.8375 50.8047 56.0198C51.2266 56.1969 51.5417 56.4313 51.75 56.723C51.9583 57.0146 52.1042 57.361 52.1875 57.762C52.2396 58.0224 52.2656 58.4782 52.2656 59.1292V64.2308H50.8594V59.1839C50.8594 58.611 50.8047 58.1839 50.6953 57.9026C50.5859 57.6162 50.3906 57.3896 50.1094 57.223C49.8333 57.0511 49.5078 56.9651 49.1328 56.9651C48.5339 56.9651 48.0156 57.1552 47.5781 57.5355C47.1458 57.9157 46.9297 58.637 46.9297 59.6995V64.2308H45.5234ZM57.5 62.973L57.7031 64.2151C57.3073 64.2985 56.9531 64.3401 56.6406 64.3401C56.1302 64.3401 55.7344 64.2594 55.4531 64.098C55.1719 63.9365 54.974 63.7256 54.8594 63.4651C54.7448 63.1995 54.6875 62.6448 54.6875 61.8011V57.0276H53.6562V55.9339H54.6875V53.8792L56.0859 53.0355V55.9339H57.5V57.0276H56.0859V61.8792C56.0859 62.2802 56.1094 62.5381 56.1562 62.6526C56.2083 62.7672 56.2891 62.8584 56.3984 62.9261C56.513 62.9938 56.6745 63.0276 56.8828 63.0276C57.0391 63.0276 57.2448 63.0094 57.5 62.973ZM64.2969 63.2073C63.776 63.65 63.2734 63.9625 62.7891 64.1448C62.3099 64.3271 61.7943 64.4183 61.2422 64.4183C60.3307 64.4183 59.6302 64.1969 59.1406 63.7542C58.651 63.3063 58.4062 62.736 58.4062 62.0433C58.4062 61.637 58.4974 61.2672 58.6797 60.9339C58.8672 60.5953 59.1094 60.3245 59.4062 60.1214C59.7083 59.9183 60.0469 59.7646 60.4219 59.6605C60.6979 59.5875 61.1146 59.5172 61.6719 59.4495C62.8073 59.3141 63.6432 59.1526 64.1797 58.9651C64.1849 58.7724 64.1875 58.65 64.1875 58.598C64.1875 58.025 64.0547 57.6214 63.7891 57.387C63.4297 57.0693 62.8958 56.9105 62.1875 56.9105C61.526 56.9105 61.0365 57.0276 60.7188 57.262C60.4062 57.4912 60.1745 57.9 60.0234 58.4886L58.6484 58.3011C58.7734 57.7125 58.9792 57.2386 59.2656 56.8792C59.5521 56.5146 59.9661 56.236 60.5078 56.0433C61.0495 55.8453 61.6771 55.7464 62.3906 55.7464C63.099 55.7464 63.6745 55.8297 64.1172 55.9964C64.5599 56.1631 64.8854 56.374 65.0938 56.6292C65.3021 56.8792 65.4479 57.1969 65.5312 57.5823C65.5781 57.8219 65.6016 58.2542 65.6016 58.8792V60.7542C65.6016 62.0615 65.6302 62.8896 65.6875 63.2386C65.75 63.5823 65.8698 63.9131 66.0469 64.2308H64.5781C64.4323 63.9391 64.3385 63.598 64.2969 63.2073ZM64.1797 60.0667C63.6693 60.275 62.9036 60.4521 61.8828 60.598C61.3047 60.6813 60.8958 60.775 60.6562 60.8792C60.4167 60.9834 60.2318 61.137 60.1016 61.3401C59.9714 61.5381 59.9062 61.7594 59.9062 62.0042C59.9062 62.3792 60.0469 62.6917 60.3281 62.9417C60.6146 63.1917 61.0312 63.3167 61.5781 63.3167C62.1198 63.3167 62.6016 63.1995 63.0234 62.9651C63.4453 62.7256 63.7552 62.4 63.9531 61.9886C64.1042 61.6709 64.1797 61.2021 64.1797 60.5823V60.0667ZM73.2031 61.1917L74.5859 61.3714C74.4349 62.3245 74.0469 63.0719 73.4219 63.6136C72.8021 64.15 72.0391 64.4183 71.1328 64.4183C69.9974 64.4183 69.0833 64.0485 68.3906 63.3089C67.7031 62.5641 67.3594 61.499 67.3594 60.1136C67.3594 59.2177 67.5078 58.4339 67.8047 57.762C68.1016 57.0901 68.5521 56.5875 69.1562 56.2542C69.7656 55.9157 70.4271 55.7464 71.1406 55.7464C72.0417 55.7464 72.7786 55.9756 73.3516 56.4339C73.9245 56.887 74.2917 57.5328 74.4531 58.3714L73.0859 58.5823C72.9557 58.025 72.724 57.6058 72.3906 57.3245C72.0625 57.0433 71.6641 56.9026 71.1953 56.9026C70.487 56.9026 69.9115 57.1578 69.4688 57.6683C69.026 58.1735 68.8047 58.9756 68.8047 60.0745C68.8047 61.1891 69.0182 61.999 69.4453 62.5042C69.8724 63.0094 70.4297 63.262 71.1172 63.262C71.6693 63.262 72.1302 63.0927 72.5 62.7542C72.8698 62.4157 73.1042 61.8948 73.2031 61.1917ZM78.8594 62.973L79.0625 64.2151C78.6667 64.2985 78.3125 64.3401 78 64.3401C77.4896 64.3401 77.0938 64.2594 76.8125 64.098C76.5312 63.9365 76.3333 63.7256 76.2188 63.4651C76.1042 63.1995 76.0469 62.6448 76.0469 61.8011V57.0276H75.0156V55.9339H76.0469V53.8792L77.4453 53.0355V55.9339H78.8594V57.0276H77.4453V61.8792C77.4453 62.2802 77.4688 62.5381 77.5156 62.6526C77.5677 62.7672 77.6484 62.8584 77.7578 62.9261C77.8724 62.9938 78.0339 63.0276 78.2422 63.0276C78.3984 63.0276 78.6042 63.0094 78.8594 62.973Z" fill="white"/>
<defs>
<linearGradient id="paint0_linear_4_210" x1="0" y1="90" x2="393" y2="90" gradientUnits="userSpaceOnUse">
<stop stop-color="#9810FA"/>
<stop offset="1" stop-color="#7F22FE"/>
</linearGradient>
</defs>
</svg>
